<svg width="69" height="69" viewBox="0 0 69 69" fill="none" xmlns="http://www.w3.org/2000/svg">
<circle cx="34.5" cy="34.5" r="33.5" fill="white" stroke="#1650C0" stroke-width="2"/>
<g clip-path="url(#clip0_1540_6899)">
<path d="M49.8345 45H19.1815C18.6733 45 18.186 44.7971 17.8268 44.436C17.4675 44.0749 17.2656 43.585 17.2656 43.0743V23.9334C17.2646 23.6802 17.3135 23.4293 17.4094 23.1953C17.5053 22.9612 17.6464 22.7485 17.8245 22.5695C18.0026 22.3904 18.2142 22.2486 18.4471 22.1522C18.68 22.0558 18.9296 22.0067 19.1815 22.0077H49.8345C50.0864 22.0067 50.3359 22.0558 50.5688 22.1522C50.8017 22.2486 51.0133 22.3904 51.1914 22.5695C51.3695 22.7485 51.5106 22.9612 51.6065 23.1953C51.7025 23.4293 51.7513 23.6802 51.7503 23.9334V43.0743C51.7503 43.585 51.5485 44.0749 51.1892 44.436C50.8299 44.7971 50.3426 45 49.8345 45ZM21.0819 41.1487H47.9034V25.859H21.0819V41.1487Z" fill="#1650C0"/>
<path d="M34.4991 35.4255C34.142 35.4275 33.7915 35.3287 33.4875 35.1405L18.161 25.5661C17.7309 25.296 17.4243 24.866 17.308 24.3697C17.1918 23.8735 17.2753 23.3511 17.5403 22.9164C17.6727 22.7005 17.8462 22.513 18.051 22.3647C18.2557 22.2165 18.4875 22.1103 18.7332 22.0523C18.9789 21.9943 19.2335 21.9857 19.4825 22.027C19.7315 22.0682 19.9699 22.1584 20.1841 22.2925L34.5067 31.2353L48.8294 22.2925C49.0429 22.1586 49.2808 22.0685 49.5292 22.0274C49.7776 21.9863 50.0316 21.9949 50.2766 22.0529C50.5217 22.1109 50.7529 22.2171 50.9569 22.3653C51.161 22.5135 51.3338 22.7008 51.4655 22.9164C51.7333 23.3497 51.8191 23.872 51.7041 24.3687C51.5892 24.8655 51.2829 25.2961 50.8525 25.5661L35.5259 35.1405C35.2172 35.3308 34.8612 35.4296 34.4991 35.4255Z" fill="#1650C0"/>
</g>
<defs>
<clipPath id="clip0_1540_6899">
<rect width="34.5" height="23" fill="white" transform="translate(17.25 22)"/>
</clipPath>
</defs>
</svg>
