<svg width="70" height="69" viewBox="0 0 70 69" fill="none" xmlns="http://www.w3.org/2000/svg">
<circle cx="35" cy="34.5" r="33.5" fill="white" stroke="#1650C0" stroke-width="2"/>
<g clip-path="url(#clip0_1540_6874)">
<path d="M35.2053 41.229C34.6919 41.229 34.2811 41.229 33.7678 41.229C33.1517 41.229 32.6383 40.7194 32.6383 40.2099C32.6383 38.2737 32.6383 36.2355 33.8704 34.605C34.4865 33.6879 35.3079 32.9745 36.1294 32.1593C36.6428 31.6497 37.1561 31.1402 37.6695 30.6307C38.491 29.8154 38.5936 28.8983 38.1829 27.8792C37.7722 26.8601 36.9508 26.3506 35.8213 26.2487C33.9731 26.0449 32.8436 26.8601 32.4329 28.7964C32.4329 29.0002 32.3303 29.204 32.3303 29.4078C32.2276 30.0192 31.7142 30.4269 30.9954 30.4269C30.0713 30.4269 29.0445 30.4269 28.1204 30.4269C27.299 30.4269 26.6829 29.8154 26.7856 29.1021C27.0936 25.2296 29.5579 22.3762 33.1517 21.6629C35.7186 21.1534 38.1829 21.3572 40.4419 22.682C44.549 25.1277 45.1651 30.4269 41.8794 33.8917C41.1606 34.605 40.3392 35.3184 39.5178 36.0317C38.3883 36.9489 37.7722 38.0699 37.8749 39.4965C37.8749 39.8023 37.8749 40.0061 37.7722 40.3118C37.6695 40.8213 37.2588 41.229 36.6428 41.229H36.5401C36.1294 41.229 35.7186 41.229 35.2053 41.229Z" fill="#1650C0"/>
<path d="M35.3073 48.4643C34.7939 48.4643 34.3832 48.4643 33.8698 48.4643C33.1511 48.4643 32.6377 47.9548 32.6377 47.2414C32.6377 46.3243 32.6377 45.4071 32.6377 44.49C32.6377 43.7766 33.1511 43.2671 33.8698 43.2671C34.7939 43.2671 35.7181 43.2671 36.6422 43.2671C37.2582 43.2671 37.7716 43.6747 37.8743 44.3881C37.977 45.4071 37.977 46.4262 37.8743 47.4453C37.8743 48.1586 37.3609 48.5662 36.6422 48.5662C36.2314 48.4643 35.7181 48.4643 35.3073 48.4643Z" fill="#1650C0"/>
</g>
<defs>
<clipPath id="clip0_1540_6874">
<rect width="17.25" height="27.1071" fill="white" transform="translate(26.7852 21.3572)"/>
</clipPath>
</defs>
</svg>
