<svg width="69" height="67" viewBox="0 0 69 67" fill="none" xmlns="http://www.w3.org/2000/svg">
<path d="M68 33.3351C68 51.0116 53.0416 65.4124 34.5 65.4124C15.9584 65.4124 1 51.0116 1 33.3351C1 15.6585 15.9584 1.25775 34.5 1.25775C53.0416 1.25775 68 15.6585 68 33.3351Z" fill="white" stroke="#1650C0" stroke-width="2"/>
<g clip-path="url(#clip0_1540_3174)">
<path d="M25.4006 42.6385H42.7868V42.4484C42.7868 41.033 42.7868 39.615 42.7868 38.197C42.7769 37.7472 42.9297 37.308 43.2189 36.9548C43.5082 36.6016 43.916 36.3565 44.3724 36.2614C44.6602 36.2005 44.9583 36.2011 45.2458 36.2631C45.5333 36.3251 45.8033 36.4471 46.0368 36.6203C46.2702 36.7936 46.4615 37.014 46.5971 37.2661C46.7328 37.5181 46.8095 37.7958 46.822 38.0795C46.822 38.132 46.822 38.1845 46.822 38.237C46.822 40.3361 46.822 42.4334 46.822 44.5291C46.8318 44.7944 46.7848 45.0588 46.6839 45.3058C46.5831 45.5528 46.4305 45.7771 46.2357 45.9648C46.041 46.1525 45.8082 46.2995 45.5519 46.3967C45.2956 46.4939 45.0213 46.5392 44.746 46.5298H23.4674C22.9771 46.5479 22.497 46.3922 22.1178 46.0922C21.7386 45.7922 21.4867 45.3687 21.4096 44.9017C21.391 44.7926 21.3814 44.6822 21.3811 44.5716C21.3811 42.4359 21.3811 40.3002 21.3811 38.1645C21.3773 37.9009 21.4294 37.6393 21.5342 37.3958C21.639 37.1523 21.7944 36.932 21.9907 36.7484C22.187 36.5648 22.4202 36.4218 22.6759 36.3282C22.9316 36.2346 23.2045 36.1922 23.4778 36.2038C23.9774 36.2227 24.452 36.4196 24.8097 36.7564C25.1673 37.0932 25.3825 37.546 25.4136 38.0269C25.4136 38.112 25.4136 38.1995 25.4136 38.277V42.6385H25.4006Z" fill="#1650C0"/>
<path d="M32.0769 33.7632V33.5406C32.0769 29.1024 32.0769 24.6626 32.0769 20.2211C32.0619 19.8795 32.1421 19.5402 32.3091 19.2386C32.4761 18.9369 32.7239 18.6838 33.0267 18.5055C33.321 18.3269 33.6583 18.2246 34.0058 18.2087C34.3533 18.1928 34.6991 18.2639 35.0097 18.4149C35.3202 18.5659 35.585 18.7918 35.7781 19.0707C35.9713 19.3495 36.0863 19.6717 36.1121 20.006C36.1121 20.1111 36.1121 20.2186 36.1121 20.3237V33.7456C36.1769 33.6881 36.2159 33.6556 36.2522 33.6206C37.08 32.8228 37.9026 32.0201 38.733 31.2273C38.9526 31.0181 39.2192 30.8603 39.512 30.7659C39.8049 30.6716 40.1164 30.6432 40.4224 30.6831C40.7285 30.7229 41.0209 30.8299 41.2773 30.9958C41.5337 31.1617 41.7472 31.3821 41.9014 31.6399C42.1149 31.9974 42.2049 32.4111 42.1582 32.8212C42.1116 33.2312 41.9308 33.6163 41.6419 33.9207C41.603 33.9632 41.5589 34.0057 41.5174 34.0457L35.5775 39.7727C35.3878 39.9728 35.157 40.1327 34.8996 40.2421C34.6423 40.3515 34.3641 40.408 34.0828 40.408C33.8015 40.408 33.5233 40.3515 33.266 40.2421C33.0086 40.1327 32.7778 39.9728 32.5881 39.7727L26.6197 34.0207C26.3882 33.8054 26.2133 33.54 26.1097 33.2464C26.0061 32.9529 25.9766 32.6397 26.0238 32.333C26.071 32.0263 26.1935 31.7349 26.3811 31.483C26.5687 31.2311 26.816 31.026 27.1024 30.8847C27.4802 30.6975 27.91 30.6308 28.3297 30.6942C28.7495 30.7576 29.1375 30.9477 29.4378 31.2373C30.2665 32.0276 31.0908 32.8212 31.9108 33.6181L32.0769 33.7632Z" fill="#1650C0"/>
</g>
<defs>
<clipPath id="clip0_1540_3174">
<rect width="25.4643" height="28.352" fill="white" transform="translate(21.3574 18.2003)"/>
</clipPath>
</defs>
</svg>
