<svg width="69" height="69" viewBox="0 0 69 69" fill="none" xmlns="http://www.w3.org/2000/svg">
<circle cx="34.5" cy="34.5" r="33.5" fill="white" stroke="#1650C0" stroke-width="2"/>
<path d="M28.9589 45.8214C28.6033 45.8214 28.2513 45.7462 27.9228 45.6001C27.5944 45.454 27.2961 45.2398 27.045 44.9699L20.509 37.9622C20.2569 37.6921 20.0569 37.3714 19.9205 37.0184C19.7841 36.6653 19.7139 36.287 19.7139 35.9049C19.7139 35.5228 19.7841 35.1444 19.9205 34.7914C20.0569 34.4383 20.2569 34.1176 20.509 33.8475C20.7609 33.5773 21.06 33.3629 21.3893 33.2166C21.7185 33.0703 22.0714 32.995 22.4278 32.995C22.7842 32.995 23.1371 33.0703 23.4664 33.2166C23.7956 33.3629 24.0948 33.5773 24.3467 33.8475L28.9589 38.7978L43.8364 22.852C44.0879 22.5819 44.3866 22.3676 44.7155 22.2214C45.0443 22.0752 45.3968 22 45.7528 22C46.1088 22 46.4613 22.0752 46.7901 22.2214C47.1189 22.3676 47.4177 22.5819 47.6692 22.852C47.9211 23.1217 48.121 23.442 48.2573 23.7946C48.3937 24.1471 48.4639 24.525 48.4639 24.9067C48.4639 25.2884 48.3937 25.6663 48.2573 26.0189C48.121 26.3715 47.9211 26.6918 47.6692 26.9614L30.8975 44.9435C30.6454 45.2211 30.344 45.4418 30.011 45.5926C29.6781 45.7434 29.3203 45.8212 28.9589 45.8214Z" fill="#1650C0"/>
</svg>
