<svg width="52" height="44" viewBox="0 0 52 44" fill="none" xmlns="http://www.w3.org/2000/svg">
<g clip-path="url(#clip0_4004_3240)">
<path d="M33.712 9.82031H5.13721C3.78296 9.82031 2.48417 10.3683 1.52657 11.3437C0.568976 12.3191 0.0310059 13.6419 0.0310059 15.0213V32.7378C0.0310059 34.1172 0.568976 35.44 1.52657 36.4154C2.48417 37.3908 3.78296 37.9388 5.13721 37.9388H5.88884L3.08727 44.0067L12.3182 37.9388H33.7431C35.0974 37.9388 36.3961 37.3908 37.3537 36.4154C38.3113 35.44 38.8493 34.1172 38.8493 32.7378V15.0213C38.8493 13.6419 38.3113 12.3191 37.3537 11.3437C36.3961 10.3683 35.0974 9.82031 33.7431 9.82031" fill="#0C2A66"/>
<path d="M17.3623 0.949219H45.9371C47.2914 0.949219 48.5902 1.49719 49.5478 2.47257C50.5054 3.44796 51.0433 4.77084 51.0433 6.15024V23.8667C51.0433 25.2461 50.5054 26.5689 49.5478 27.5443C48.5902 28.5197 47.2914 29.0677 45.9371 29.0677H45.1855L47.9933 35.1356L38.7562 29.0677H17.3623C16.0081 29.0677 14.7093 28.5197 13.7517 27.5443C12.7941 26.5689 12.2561 25.2461 12.2561 23.8667V6.15024C12.2561 4.77084 12.7941 3.44796 13.7517 2.47257C14.7093 1.49719 16.0081 0.949219 17.3623 0.949219Z" fill="white"/>
<path d="M17.3623 0.949219H45.9371C47.2914 0.949219 48.5902 1.49719 49.5478 2.47257C50.5054 3.44796 51.0433 4.77084 51.0433 6.15024V23.8667C51.0433 25.2461 50.5054 26.5689 49.5478 27.5443C48.5902 28.5197 47.2914 29.0677 45.9371 29.0677H45.1855L47.9933 35.1356L38.7562 29.0677H17.3623C16.0081 29.0677 14.7093 28.5197 13.7517 27.5443C12.7941 26.5689 12.2561 25.2461 12.2561 23.8667V6.15024C12.2561 4.77084 12.7941 3.44796 13.7517 2.47257C14.7093 1.49719 16.0081 0.949219 17.3623 0.949219Z" stroke="#0C2A66" stroke-width="1.11818" stroke-linecap="round" stroke-linejoin="round"/>
<path d="M31.6623 4.87891L34.7807 11.3138L41.7442 12.3451L36.7064 17.35L37.8928 24.4176L31.6623 21.0768L25.4317 24.4176L26.6182 17.35L21.5803 12.3451L28.5439 11.3138L31.6623 4.87891Z" fill="#0172A2"/>
</g>
<defs>
<clipPath id="clip0_4004_3240">
<rect width="52" height="44" fill="white"/>
</clipPath>
</defs>
</svg>
